<svg xmlns="http://www.w3.org/2000/svg" width="101.387" height="23.608" viewBox="0 0 101.387 23.608">
  <g id="Gruppe_22" data-name="Gruppe 22" transform="translate(0 16.282)">
    <g id="Gruppe_13" data-name="Gruppe 13" transform="translate(0 -16.282)">
      <path id="Pfad_6" data-name="Pfad 6" d="M0,0V5.3H4.657V23.608h6.03V5.3h4.627V0Z" fill="#dfdfdf"/>
    </g>
    <g id="Gruppe_14" data-name="Gruppe 14" transform="translate(18.376 -16.282)">
      <path id="Pfad_7" data-name="Pfad 7" d="M0,0V23.608H5.774v-9h6.86v-5.3H5.774V5.3h7.115V0Z" fill="#dfdfdf"/>
    </g>
    <g id="Gruppe_15" data-name="Gruppe 15" transform="translate(45.717 -16.282)">
      <path id="Pfad_8" data-name="Pfad 8" d="M0,0V5.3H4.657V23.608h6.03V5.3h4.625V0Z" fill="#dfdfdf"/>
    </g>
    <g id="Gruppe_16" data-name="Gruppe 16" transform="translate(64.093 -16.282)">
      <path id="Pfad_9" data-name="Pfad 9" d="M9.445,0,.161,13.973H.1V0H-5.39L-14.9,13.718h-.064V0h-6.029V23.608h6l9-13.08h.064v13.08H.129L16.3,0Z" transform="translate(20.991)" fill="#dfdfdf"/>
    </g>
    <g id="Gruppe_17" data-name="Gruppe 17" transform="translate(31.705 -16.282)">
      <path id="Pfad_10" data-name="Pfad 10" d="M3.061,0-6.8,23.608H-5.75L4.114,0Z" transform="translate(6.803)" fill="#dfdfdf"/>
    </g>
  </g>
</svg>
